<svg xmlns="http://www.w3.org/2000/svg" xmlns:xlink="http://www.w3.org/1999/xlink" xml:space="preserve" width="1000px" height="695.189px" x="0px" y="0px" viewBox="0 0 1000 695.189"><defs><path id="a" d="M0 695.189h1000V0H0v695.189"/></defs><clipPath id="b"><use xlink:href="#a" overflow="visible"/></clipPath><path fill="#EB6700" d="M892.064-.092h-784.18C48.344-.092-.046 52.688-.046 117.66v459.777c0 64.872 48.39 117.66 107.931 117.66h784.18c59.541 0 107.99-52.788 107.99-117.66V117.66c0-64.972-48.45-117.752-107.991-117.752" clip-path="url(#b)"/><path fill="#FFF" d="M49.573 577.383V117.609c0-35.078 26.206-63.55 58.312-63.55h784.234c32.055 0 58.313 28.472 58.313 63.55v459.773c0 35.091-26.258 63.587-58.313 63.587H107.885c-32.106.001-58.312-28.495-58.312-63.586m58.312-555.856c-48.495 0-88.009 43.156-88.009 96.082v459.773c0 53.019 39.514 96.073 88.009 96.073h784.234c48.532 0 88.009-43.055 88.009-96.073V117.609c0-52.926-39.477-96.082-88.009-96.082H107.885z" clip-path="url(#b)"/><path fill="#FFF" d="M436.544 453.447v-63.458h145.989v-84.986H436.544v-63.55h177.714V143.72H318.177v407.369h295.989v-97.642zM753.02 477.255h118.32v32.385H753.02zM752.973 352.219h118.404v32.385H752.973zM752.973 393.87h118.404v32.431H752.973z"/><defs><path id="c" d="M0 695.189h1000V0H0v695.189"/></defs><clipPath id="d"><use xlink:href="#c" overflow="visible"/></clipPath><path fill="#FFF" d="M871.377 176.394v-32.202h-95.092c-1.779 9.44-4.66 23.138-8.477 31.633l-.331.569h103.9z" clip-path="url(#d)"/><path fill="#FFF" d="M753.02 435.503h118.32v32.385H753.02zM752.973 310.581h118.404v32.39H752.973zM753.02 518.842h118.32v32.44H753.02z"/><defs><path id="e" d="M0 695.189h1000V0H0v695.189"/></defs><clipPath id="f"><use xlink:href="#e" overflow="visible"/></clipPath><path fill="#FFF" d="m762.937 185.6-.056.234a114.01 114.01 0 0 1-20.669 26.821l-6.147 5.381h135.367V185.6H762.937z" clip-path="url(#f)"/><path fill="#FFF" d="M678.9 268.884v32.156h74.12v-4.298 4.578h118.412v-32.436z"/><defs><path id="g" d="M0 695.189h1000V0H0v695.189"/></defs><clipPath id="h"><use xlink:href="#g" overflow="visible"/></clipPath><path fill="#FFF" d="M723.937 227.196c-13.403 8.592-28.706 14.353-45.036 16.146v16.243h192.477v-32.39H723.937z" clip-path="url(#h)"/></svg>